<svg width="196" height="61" viewBox="0 0 196 61" fill="none" xmlns="http://www.w3.org/2000/svg">
<path d="M10.232 26.9069C8.144 26.9069 6.392 26.5949 4.976 25.9709C3.56 25.3229 2.468 24.4949 1.7 23.4869C0.956 22.4549 0.56 21.3629 0.512 20.2109C0.512 20.0189 0.584 19.8509 0.728 19.7069C0.896 19.5389 1.088 19.4549 1.304 19.4549H3.14C3.428 19.4549 3.644 19.5269 3.788 19.6709C3.932 19.8149 4.028 19.9829 4.076 20.1749C4.196 20.7509 4.484 21.3269 4.94 21.9029C5.42 22.4549 6.08 22.9229 6.92 23.3069C7.784 23.6669 8.888 23.8469 10.232 23.8469C12.296 23.8469 13.808 23.4869 14.768 22.7669C15.752 22.0229 16.244 21.0389 16.244 19.8149C16.244 18.9749 15.98 18.3029 15.452 17.7989C14.948 17.2709 14.168 16.8029 13.112 16.3949C12.056 15.9869 10.688 15.5429 9.008 15.0629C7.256 14.5589 5.804 14.0069 4.652 13.4069C3.5 12.8069 2.636 12.0629 2.06 11.1749C1.508 10.2869 1.232 9.15887 1.232 7.79087C1.232 6.49487 1.58 5.34287 2.276 4.33487C2.972 3.30287 3.968 2.48687 5.264 1.88687C6.584 1.28687 8.18 0.986874 10.052 0.986874C11.54 0.986874 12.836 1.19087 13.94 1.59887C15.068 1.98287 16.004 2.51087 16.748 3.18287C17.492 3.83087 18.056 4.53887 18.44 5.30687C18.824 6.05087 19.028 6.78287 19.052 7.50287C19.052 7.67087 18.992 7.83887 18.872 8.00687C18.752 8.15087 18.56 8.22287 18.296 8.22287H16.388C16.22 8.22287 16.04 8.17487 15.848 8.07887C15.68 7.98287 15.548 7.80287 15.452 7.53888C15.308 6.55487 14.756 5.72687 13.796 5.05487C12.836 4.38287 11.588 4.04688 10.052 4.04688C8.492 4.04688 7.22 4.34687 6.236 4.94687C5.276 5.54687 4.796 6.48287 4.796 7.75487C4.796 8.57087 5.024 9.25487 5.48 9.80687C5.936 10.3349 6.656 10.8029 7.64 11.2109C8.624 11.6189 9.908 12.0509 11.492 12.5069C13.412 13.0349 14.984 13.5989 16.208 14.1989C17.432 14.7749 18.332 15.5069 18.908 16.3949C19.508 17.2589 19.808 18.3749 19.808 19.7429C19.808 21.2549 19.412 22.5509 18.62 23.6309C17.828 24.6869 16.712 25.5029 15.272 26.0789C13.856 26.6309 12.176 26.9069 10.232 26.9069ZM31.5105 26.9069C29.0385 26.9069 27.0705 26.1509 25.6065 24.6389C24.1425 23.1029 23.3385 21.0149 23.1945 18.3749C23.1705 18.0629 23.1585 17.6669 23.1585 17.1869C23.1585 16.6829 23.1705 16.2749 23.1945 15.9629C23.2905 14.2589 23.6865 12.7709 24.3825 11.4989C25.0785 10.2029 26.0265 9.20687 27.2265 8.51087C28.4505 7.81487 29.8785 7.46687 31.5105 7.46687C33.3345 7.46687 34.8585 7.85087 36.0825 8.61887C37.3305 9.38687 38.2785 10.4789 38.9265 11.8949C39.5745 13.3109 39.8985 14.9669 39.8985 16.8629V17.4749C39.8985 17.7389 39.8145 17.9429 39.6465 18.0869C39.5025 18.2309 39.3105 18.3029 39.0705 18.3029H26.6145C26.6145 18.3269 26.6145 18.3749 26.6145 18.4469C26.6145 18.5189 26.6145 18.5789 26.6145 18.6269C26.6625 19.6109 26.8785 20.5349 27.2625 21.3989C27.6465 22.2389 28.1985 22.9229 28.9185 23.4509C29.6385 23.9789 30.5025 24.2429 31.5105 24.2429C32.3745 24.2429 33.0945 24.1109 33.6705 23.8469C34.2465 23.5829 34.7145 23.2949 35.0745 22.9829C35.4345 22.6469 35.6745 22.3949 35.7945 22.2269C36.0105 21.9149 36.1785 21.7349 36.2985 21.6869C36.4185 21.6149 36.6105 21.5789 36.8745 21.5789H38.6025C38.8425 21.5789 39.0345 21.6509 39.1785 21.7949C39.3465 21.9149 39.4185 22.0949 39.3945 22.3349C39.3705 22.6949 39.1785 23.1389 38.8185 23.6669C38.4585 24.1709 37.9425 24.6749 37.2705 25.1789C36.5985 25.6829 35.7825 26.1029 34.8225 26.4389C33.8625 26.7509 32.7585 26.9069 31.5105 26.9069ZM26.6145 15.8189H36.4785V15.7109C36.4785 14.6309 36.2745 13.6709 35.8665 12.8309C35.4825 11.9909 34.9185 11.3309 34.1745 10.8509C33.4305 10.3469 32.5425 10.0949 31.5105 10.0949C30.4785 10.0949 29.5905 10.3469 28.8465 10.8509C28.1265 11.3309 27.5745 11.9909 27.1905 12.8309C26.8065 13.6709 26.6145 14.6309 26.6145 15.7109V15.8189ZM50.0863 26.5469C49.7263 26.5469 49.4383 26.4629 49.2223 26.2949C49.0303 26.1269 48.8743 25.9109 48.7543 25.6469L42.0942 8.94287C42.0463 8.82287 42.0223 8.70287 42.0223 8.58287C42.0223 8.36687 42.0943 8.18687 42.2383 8.04288C42.3823 7.89887 42.5623 7.82687 42.7783 7.82687H44.5063C44.7703 7.82687 44.9743 7.89887 45.1183 8.04288C45.2623 8.18687 45.3463 8.31887 45.3703 8.43887L50.8783 22.6229L56.3503 8.43887C56.3983 8.31887 56.4823 8.18687 56.6023 8.04288C56.7463 7.89887 56.9503 7.82687 57.2143 7.82687H58.9783C59.1703 7.82687 59.3383 7.89887 59.4823 8.04288C59.6503 8.18687 59.7343 8.36687 59.7343 8.58287C59.7343 8.70287 59.7103 8.82287 59.6623 8.94287L52.9663 25.6469C52.8703 25.9109 52.7143 26.1269 52.4983 26.2949C52.3063 26.4629 52.0183 26.5469 51.6343 26.5469H50.0863ZM68.0207 26.9069C66.8207 26.9069 65.7287 26.6669 64.7447 26.1869C63.7607 25.7069 62.9687 25.0589 62.3687 24.2429C61.7687 23.4269 61.4687 22.5029 61.4687 21.4709C61.4687 19.8149 62.1407 18.4949 63.4847 17.5109C64.8287 16.5269 66.5807 15.8789 68.7407 15.5669L74.1047 14.8109V13.7669C74.1047 12.6149 73.7687 11.7149 73.0967 11.0669C72.4487 10.4189 71.3807 10.0949 69.8927 10.0949C68.8127 10.0949 67.9367 10.3109 67.2647 10.7429C66.6167 11.1749 66.1607 11.7269 65.8967 12.3989C65.7527 12.7589 65.5007 12.9389 65.1407 12.9389H63.5207C63.2567 12.9389 63.0527 12.8669 62.9087 12.7229C62.7887 12.5549 62.7287 12.3629 62.7287 12.1469C62.7287 11.7869 62.8607 11.3429 63.1247 10.8149C63.4127 10.2869 63.8447 9.77087 64.4207 9.26687C64.9967 8.76287 65.7287 8.34287 66.6167 8.00687C67.5287 7.64687 68.6327 7.46687 69.9287 7.46687C71.3687 7.46687 72.5807 7.65887 73.5647 8.04288C74.5487 8.40287 75.3167 8.89487 75.8687 9.51887C76.4447 10.1429 76.8527 10.8509 77.0927 11.6429C77.3567 12.4349 77.4887 13.2389 77.4887 14.0549V25.7189C77.4887 25.9589 77.4047 26.1629 77.2367 26.3309C77.0927 26.4749 76.9007 26.5469 76.6607 26.5469H75.0047C74.7407 26.5469 74.5367 26.4749 74.3927 26.3309C74.2487 26.1629 74.1767 25.9589 74.1767 25.7189V24.1709C73.8647 24.6029 73.4447 25.0349 72.9167 25.4669C72.3887 25.8749 71.7287 26.2229 70.9367 26.5109C70.1447 26.7749 69.1727 26.9069 68.0207 26.9069ZM68.7767 24.2069C69.7607 24.2069 70.6607 24.0029 71.4767 23.5949C72.2927 23.1629 72.9287 22.5029 73.3847 21.6149C73.8647 20.7269 74.1047 19.6109 74.1047 18.2669V17.2589L69.9287 17.8709C68.2247 18.1109 66.9407 18.5189 66.0767 19.0949C65.2127 19.6469 64.7807 20.3549 64.7807 21.2189C64.7807 21.8909 64.9727 22.4549 65.3567 22.9109C65.7647 23.3429 66.2687 23.6669 66.8687 23.8829C67.4927 24.0989 68.1287 24.2069 68.7767 24.2069ZM89.504 26.9069C88.184 26.9069 87.044 26.6789 86.084 26.2229C85.124 25.7429 84.332 25.1069 83.708 24.3149C83.108 23.4989 82.652 22.5749 82.34 21.5429C82.052 20.5109 81.884 19.4189 81.836 18.2669C81.812 17.8829 81.8 17.5229 81.8 17.1869C81.8 16.8509 81.812 16.4909 81.836 16.1069C81.884 14.9789 82.052 13.8989 82.34 12.8669C82.652 11.8349 83.108 10.9109 83.708 10.0949C84.332 9.27887 85.124 8.64287 86.084 8.18687C87.044 7.70687 88.184 7.46687 89.504 7.46687C90.92 7.46687 92.096 7.71887 93.032 8.22287C93.968 8.72687 94.736 9.35087 95.336 10.0949V1.81487C95.336 1.57487 95.408 1.38287 95.552 1.23887C95.72 1.07087 95.924 0.986874 96.164 0.986874H97.892C98.132 0.986874 98.324 1.07087 98.468 1.23887C98.636 1.38287 98.72 1.57487 98.72 1.81487V25.7189C98.72 25.9589 98.636 26.1629 98.468 26.3309C98.324 26.4749 98.132 26.5469 97.892 26.5469H96.272C96.008 26.5469 95.804 26.4749 95.66 26.3309C95.516 26.1629 95.444 25.9589 95.444 25.7189V24.2069C94.844 24.9749 94.064 25.6229 93.104 26.1509C92.144 26.6549 90.944 26.9069 89.504 26.9069ZM90.26 23.9909C91.46 23.9909 92.42 23.7149 93.14 23.1629C93.86 22.6109 94.4 21.9149 94.76 21.0749C95.12 20.2109 95.312 19.3349 95.336 18.4469C95.36 18.0629 95.372 17.6069 95.372 17.0789C95.372 16.5269 95.36 16.0589 95.336 15.6749C95.312 14.8349 95.108 14.0069 94.724 13.1909C94.364 12.3749 93.812 11.7029 93.068 11.1749C92.348 10.6469 91.412 10.3829 90.26 10.3829C89.036 10.3829 88.064 10.6589 87.344 11.2109C86.624 11.7389 86.108 12.4469 85.796 13.3349C85.484 14.1989 85.304 15.1349 85.256 16.1429C85.232 16.8389 85.232 17.5349 85.256 18.2309C85.304 19.2389 85.484 20.1869 85.796 21.0749C86.108 21.9389 86.624 22.6469 87.344 23.1989C88.064 23.7269 89.036 23.9909 90.26 23.9909ZM104.938 26.5469C104.698 26.5469 104.494 26.4749 104.326 26.3309C104.182 26.1629 104.11 25.9589 104.11 25.7189V1.81487C104.11 1.57487 104.182 1.38287 104.326 1.23887C104.494 1.07087 104.698 0.986874 104.938 0.986874H106.738C107.002 0.986874 107.206 1.07087 107.35 1.23887C107.494 1.38287 107.566 1.57487 107.566 1.81487V10.2029C108.214 9.38687 109.006 8.72687 109.942 8.22287C110.878 7.71887 112.066 7.46687 113.506 7.46687C115.066 7.46687 116.386 7.81487 117.466 8.51087C118.57 9.18287 119.398 10.1309 119.95 11.3549C120.526 12.5549 120.814 13.9589 120.814 15.5669V25.7189C120.814 25.9589 120.742 26.1629 120.598 26.3309C120.454 26.4749 120.25 26.5469 119.986 26.5469H118.186C117.946 26.5469 117.742 26.4749 117.574 26.3309C117.43 26.1629 117.358 25.9589 117.358 25.7189V15.7469C117.358 14.0669 116.95 12.7589 116.134 11.8229C115.318 10.8629 114.118 10.3829 112.534 10.3829C111.046 10.3829 109.846 10.8629 108.934 11.8229C108.022 12.7589 107.566 14.0669 107.566 15.7469V25.7189C107.566 25.9589 107.494 26.1629 107.35 26.3309C107.206 26.4749 107.002 26.5469 106.738 26.5469H104.938ZM131.232 26.9069C130.032 26.9069 128.94 26.6669 127.956 26.1869C126.972 25.7069 126.18 25.0589 125.58 24.2429C124.98 23.4269 124.68 22.5029 124.68 21.4709C124.68 19.8149 125.352 18.4949 126.696 17.5109C128.04 16.5269 129.792 15.8789 131.952 15.5669L137.316 14.8109V13.7669C137.316 12.6149 136.98 11.7149 136.308 11.0669C135.66 10.4189 134.592 10.0949 133.104 10.0949C132.024 10.0949 131.148 10.3109 130.476 10.7429C129.828 11.1749 129.372 11.7269 129.108 12.3989C128.964 12.7589 128.712 12.9389 128.352 12.9389H126.732C126.468 12.9389 126.264 12.8669 126.12 12.7229C126 12.5549 125.94 12.3629 125.94 12.1469C125.94 11.7869 126.072 11.3429 126.336 10.8149C126.624 10.2869 127.056 9.77087 127.632 9.26687C128.208 8.76287 128.94 8.34287 129.828 8.00687C130.74 7.64687 131.844 7.46687 133.14 7.46687C134.58 7.46687 135.792 7.65887 136.776 8.04288C137.76 8.40287 138.528 8.89487 139.08 9.51887C139.656 10.1429 140.064 10.8509 140.304 11.6429C140.568 12.4349 140.7 13.2389 140.7 14.0549V25.7189C140.7 25.9589 140.616 26.1629 140.448 26.3309C140.304 26.4749 140.112 26.5469 139.872 26.5469H138.216C137.952 26.5469 137.748 26.4749 137.604 26.3309C137.46 26.1629 137.388 25.9589 137.388 25.7189V24.1709C137.076 24.6029 136.656 25.0349 136.128 25.4669C135.6 25.8749 134.94 26.2229 134.148 26.5109C133.356 26.7749 132.384 26.9069 131.232 26.9069ZM131.988 24.2069C132.972 24.2069 133.872 24.0029 134.688 23.5949C135.504 23.1629 136.14 22.5029 136.596 21.6149C137.076 20.7269 137.316 19.6109 137.316 18.2669V17.2589L133.14 17.8709C131.436 18.1109 130.152 18.5189 129.288 19.0949C128.424 19.6469 127.992 20.3549 127.992 21.2189C127.992 21.8909 128.184 22.4549 128.568 22.9109C128.976 23.3429 129.48 23.6669 130.08 23.8829C130.704 24.0989 131.34 24.2069 131.988 24.2069ZM146.703 26.5469C146.463 26.5469 146.259 26.4749 146.091 26.3309C145.947 26.1629 145.875 25.9589 145.875 25.7189V8.65487C145.875 8.41487 145.947 8.22287 146.091 8.07887C146.259 7.91087 146.463 7.82687 146.703 7.82687H148.323C148.563 7.82687 148.755 7.91087 148.899 8.07887C149.067 8.22287 149.151 8.41487 149.151 8.65487V9.91487C149.703 9.17087 150.399 8.58287 151.239 8.15087C152.079 7.69487 153.087 7.46687 154.263 7.46687C156.975 7.44287 158.895 8.54687 160.023 10.7789C160.575 9.77087 161.379 8.96687 162.435 8.36688C163.491 7.76687 164.691 7.46687 166.035 7.46687C167.283 7.46687 168.411 7.75487 169.419 8.33087C170.451 8.90687 171.255 9.78287 171.831 10.9589C172.431 12.1109 172.731 13.5629 172.731 15.3149V25.7189C172.731 25.9589 172.647 26.1629 172.479 26.3309C172.335 26.4749 172.143 26.5469 171.903 26.5469H170.211C169.971 26.5469 169.767 26.4749 169.599 26.3309C169.455 26.1629 169.383 25.9589 169.383 25.7189V15.6389C169.383 14.2949 169.191 13.2389 168.807 12.4709C168.423 11.7029 167.907 11.1629 167.259 10.8509C166.611 10.5389 165.903 10.3829 165.135 10.3829C164.511 10.3829 163.875 10.5389 163.227 10.8509C162.579 11.1629 162.039 11.7029 161.607 12.4709C161.199 13.2389 160.995 14.2949 160.995 15.6389V25.7189C160.995 25.9589 160.911 26.1629 160.743 26.3309C160.599 26.4749 160.407 26.5469 160.167 26.5469H158.475C158.235 26.5469 158.031 26.4749 157.863 26.3309C157.719 26.1629 157.647 25.9589 157.647 25.7189V15.6389C157.647 14.2949 157.443 13.2389 157.035 12.4709C156.627 11.7029 156.099 11.1629 155.451 10.8509C154.803 10.5389 154.119 10.3829 153.399 10.3829C152.775 10.3829 152.139 10.5389 151.491 10.8509C150.843 11.1629 150.303 11.7029 149.871 12.4709C149.463 13.2389 149.259 14.2829 149.259 15.6029V25.7189C149.259 25.9589 149.175 26.1629 149.007 26.3309C148.863 26.4749 148.671 26.5469 148.431 26.5469H146.703ZM2.96 60.5469C2.72 60.5469 2.516 60.4749 2.348 60.3309C2.204 60.1629 2.132 59.9589 2.132 59.7189V36.2109C2.132 35.9469 2.204 35.7429 2.348 35.5989C2.516 35.4309 2.72 35.3469 2.96 35.3469H4.76C5.048 35.3469 5.264 35.4189 5.408 35.5629C5.552 35.7069 5.636 35.8269 5.66 35.9229L13.292 50.4669L20.96 35.9229C21.008 35.8269 21.092 35.7069 21.212 35.5629C21.356 35.4189 21.572 35.3469 21.86 35.3469H23.624C23.888 35.3469 24.092 35.4309 24.236 35.5989C24.404 35.7429 24.488 35.9469 24.488 36.2109V59.7189C24.488 59.9589 24.404 60.1629 24.236 60.3309C24.092 60.4749 23.888 60.5469 23.624 60.5469H21.86C21.62 60.5469 21.416 60.4749 21.248 60.3309C21.104 60.1629 21.032 59.9589 21.032 59.7189V42.0069L15.02 53.7429C14.924 53.9829 14.78 54.1749 14.588 54.3189C14.396 54.4389 14.156 54.4989 13.868 54.4989H12.752C12.44 54.4989 12.188 54.4389 11.996 54.3189C11.828 54.1749 11.684 53.9829 11.564 53.7429L5.552 42.0069V59.7189C5.552 59.9589 5.468 60.1629 5.3 60.3309C5.156 60.4749 4.964 60.5469 4.724 60.5469H2.96ZM35.466 60.9069C34.266 60.9069 33.174 60.6669 32.19 60.1869C31.206 59.7069 30.414 59.0589 29.814 58.2429C29.214 57.4269 28.914 56.5029 28.914 55.4709C28.914 53.8149 29.586 52.4949 30.93 51.5109C32.274 50.5269 34.026 49.8789 36.186 49.5669L41.55 48.8109V47.7669C41.55 46.6149 41.214 45.7149 40.542 45.0669C39.894 44.4189 38.826 44.0949 37.338 44.0949C36.258 44.0949 35.382 44.3109 34.71 44.7429C34.062 45.1749 33.606 45.7269 33.342 46.3989C33.198 46.7589 32.946 46.9389 32.586 46.9389H30.966C30.702 46.9389 30.498 46.8669 30.354 46.7229C30.234 46.5549 30.174 46.3629 30.174 46.1469C30.174 45.7869 30.306 45.3429 30.57 44.8149C30.858 44.2869 31.29 43.7709 31.866 43.2669C32.442 42.7629 33.174 42.3429 34.062 42.0069C34.974 41.6469 36.078 41.4669 37.374 41.4669C38.814 41.4669 40.026 41.6589 41.01 42.0429C41.994 42.4029 42.762 42.8949 43.314 43.5189C43.89 44.1429 44.298 44.8509 44.538 45.6429C44.802 46.4349 44.934 47.2389 44.934 48.0549V59.7189C44.934 59.9589 44.85 60.1629 44.682 60.3309C44.538 60.4749 44.346 60.5469 44.106 60.5469H42.45C42.186 60.5469 41.982 60.4749 41.838 60.3309C41.694 60.1629 41.622 59.9589 41.622 59.7189V58.1709C41.31 58.6029 40.89 59.0349 40.362 59.4669C39.834 59.8749 39.174 60.2229 38.382 60.5109C37.59 60.7749 36.618 60.9069 35.466 60.9069ZM36.222 58.2069C37.206 58.2069 38.106 58.0029 38.922 57.5949C39.738 57.1629 40.374 56.5029 40.83 55.6149C41.31 54.7269 41.55 53.6109 41.55 52.2669V51.2589L37.374 51.8709C35.67 52.1109 34.386 52.5189 33.522 53.0949C32.658 53.6469 32.226 54.3549 32.226 55.2189C32.226 55.8909 32.418 56.4549 32.802 56.9109C33.21 57.3429 33.714 57.6669 34.314 57.8829C34.938 58.0989 35.574 58.2069 36.222 58.2069ZM50.9373 60.5469C50.6973 60.5469 50.4933 60.4749 50.3253 60.3309C50.1813 60.1629 50.1093 59.9589 50.1093 59.7189V42.6549C50.1093 42.4149 50.1813 42.2229 50.3253 42.0789C50.4933 41.9109 50.6973 41.8269 50.9373 41.8269H52.6293C52.8693 41.8269 53.0613 41.9109 53.2053 42.0789C53.3733 42.2229 53.4573 42.4149 53.4573 42.6549V44.2389C54.0813 43.4229 54.8613 42.7629 55.7973 42.2589C56.7573 41.7309 57.9813 41.4669 59.4693 41.4669C61.0293 41.4669 62.3493 41.8149 63.4293 42.5109C64.5333 43.1829 65.3613 44.1309 65.9133 45.3549C66.4653 46.5549 66.7413 47.9589 66.7413 49.5669V59.7189C66.7413 59.9589 66.6693 60.1629 66.5253 60.3309C66.3813 60.4749 66.1893 60.5469 65.9493 60.5469H64.1493C63.9093 60.5469 63.7053 60.4749 63.5373 60.3309C63.3933 60.1629 63.3213 59.9589 63.3213 59.7189V49.7469C63.3213 48.0669 62.9133 46.7589 62.0973 45.8229C61.2813 44.8629 60.0813 44.3829 58.4973 44.3829C57.0093 44.3829 55.8093 44.8629 54.8973 45.8229C54.0093 46.7589 53.5653 48.0669 53.5653 49.7469V59.7189C53.5653 59.9589 53.4813 60.1629 53.3133 60.3309C53.1693 60.4749 52.9773 60.5469 52.7373 60.5469H50.9373ZM77.1613 60.9069C75.9613 60.9069 74.8693 60.6669 73.8853 60.1869C72.9013 59.7069 72.1093 59.0589 71.5093 58.2429C70.9093 57.4269 70.6093 56.5029 70.6093 55.4709C70.6093 53.8149 71.2813 52.4949 72.6253 51.5109C73.9693 50.5269 75.7213 49.8789 77.8813 49.5669L83.2453 48.8109V47.7669C83.2453 46.6149 82.9093 45.7149 82.2373 45.0669C81.5893 44.4189 80.5213 44.0949 79.0333 44.0949C77.9533 44.0949 77.0773 44.3109 76.4053 44.7429C75.7573 45.1749 75.3013 45.7269 75.0373 46.3989C74.8933 46.7589 74.6413 46.9389 74.2813 46.9389H72.6613C72.3973 46.9389 72.1933 46.8669 72.0493 46.7229C71.9293 46.5549 71.8693 46.3629 71.8693 46.1469C71.8693 45.7869 72.0013 45.3429 72.2653 44.8149C72.5533 44.2869 72.9853 43.7709 73.5613 43.2669C74.1373 42.7629 74.8693 42.3429 75.7573 42.0069C76.6693 41.6469 77.7733 41.4669 79.0693 41.4669C80.5093 41.4669 81.7213 41.6589 82.7053 42.0429C83.6893 42.4029 84.4573 42.8949 85.0093 43.5189C85.5853 44.1429 85.9933 44.8509 86.2333 45.6429C86.4973 46.4349 86.6293 47.2389 86.6293 48.0549V59.7189C86.6293 59.9589 86.5453 60.1629 86.3773 60.3309C86.2333 60.4749 86.0413 60.5469 85.8013 60.5469H84.1453C83.8813 60.5469 83.6773 60.4749 83.5333 60.3309C83.3893 60.1629 83.3173 59.9589 83.3173 59.7189V58.1709C83.0053 58.6029 82.5853 59.0349 82.0573 59.4669C81.5293 59.8749 80.8693 60.2229 80.0773 60.5109C79.2853 60.7749 78.3133 60.9069 77.1613 60.9069ZM77.9173 58.2069C78.9013 58.2069 79.8013 58.0029 80.6173 57.5949C81.4333 57.1629 82.0693 56.5029 82.5253 55.6149C83.0053 54.7269 83.2453 53.6109 83.2453 52.2669V51.2589L79.0693 51.8709C77.3653 52.1109 76.0813 52.5189 75.2173 53.0949C74.3533 53.6469 73.9213 54.3549 73.9213 55.2189C73.9213 55.8909 74.1133 56.4549 74.4973 56.9109C74.9053 57.3429 75.4093 57.6669 76.0093 57.8829C76.6333 58.0989 77.2693 58.2069 77.9173 58.2069ZM97.9691 60.5469C97.6091 60.5469 97.3211 60.4629 97.1051 60.2949C96.9131 60.1269 96.7571 59.9109 96.6371 59.6469L89.9771 42.9429C89.9291 42.8229 89.9051 42.7029 89.9051 42.5829C89.9051 42.3669 89.9771 42.1869 90.1211 42.0429C90.2651 41.8989 90.4451 41.8269 90.6611 41.8269H92.3891C92.6531 41.8269 92.8571 41.8989 93.0011 42.0429C93.1451 42.1869 93.2291 42.3189 93.2531 42.4389L98.7611 56.6229L104.233 42.4389C104.281 42.3189 104.365 42.1869 104.485 42.0429C104.629 41.8989 104.833 41.8269 105.097 41.8269H106.861C107.053 41.8269 107.221 41.8989 107.365 42.0429C107.533 42.1869 107.617 42.3669 107.617 42.5829C107.617 42.7029 107.593 42.8229 107.545 42.9429L100.849 59.6469C100.753 59.9109 100.597 60.1269 100.381 60.2949C100.189 60.4629 99.9011 60.5469 99.5171 60.5469H97.9691ZM127.83 60.9069C125.742 60.9069 123.99 60.5949 122.574 59.9709C121.158 59.3229 120.066 58.4949 119.298 57.4869C118.554 56.4549 118.158 55.3629 118.11 54.2109C118.11 54.0189 118.182 53.8509 118.326 53.7069C118.494 53.5389 118.686 53.4549 118.902 53.4549H120.738C121.026 53.4549 121.242 53.5269 121.386 53.6709C121.53 53.8149 121.626 53.9829 121.674 54.1749C121.794 54.7509 122.082 55.3269 122.538 55.9029C123.018 56.4549 123.678 56.9229 124.518 57.3069C125.382 57.6669 126.486 57.8469 127.83 57.8469C129.894 57.8469 131.406 57.4869 132.366 56.7669C133.35 56.0229 133.842 55.0389 133.842 53.8149C133.842 52.9749 133.578 52.3029 133.05 51.7989C132.546 51.2709 131.766 50.8029 130.71 50.3949C129.654 49.9869 128.286 49.5429 126.606 49.0629C124.854 48.5589 123.402 48.0069 122.25 47.4069C121.098 46.8069 120.234 46.0629 119.658 45.1749C119.106 44.2869 118.83 43.1589 118.83 41.7909C118.83 40.4949 119.178 39.3429 119.874 38.3349C120.57 37.3029 121.566 36.4869 122.862 35.8869C124.182 35.2869 125.778 34.9869 127.65 34.9869C129.138 34.9869 130.434 35.1909 131.538 35.5989C132.666 35.9829 133.602 36.5109 134.346 37.1829C135.09 37.8309 135.654 38.5389 136.038 39.3069C136.422 40.0509 136.626 40.7829 136.65 41.5029C136.65 41.6709 136.59 41.8389 136.47 42.0069C136.35 42.1509 136.158 42.2229 135.894 42.2229H133.986C133.818 42.2229 133.638 42.1749 133.446 42.0789C133.278 41.9829 133.146 41.8029 133.05 41.5389C132.906 40.5549 132.354 39.7269 131.394 39.0549C130.434 38.3829 129.186 38.0469 127.65 38.0469C126.09 38.0469 124.818 38.3469 123.834 38.9469C122.874 39.5469 122.394 40.4829 122.394 41.7549C122.394 42.5709 122.622 43.2549 123.078 43.8069C123.534 44.3349 124.254 44.8029 125.238 45.2109C126.222 45.6189 127.506 46.0509 129.09 46.5069C131.01 47.0349 132.582 47.5989 133.806 48.1989C135.03 48.7749 135.93 49.5069 136.506 50.3949C137.106 51.2589 137.406 52.3749 137.406 53.7429C137.406 55.2549 137.01 56.5509 136.218 57.6309C135.426 58.6869 134.31 59.5029 132.87 60.0789C131.454 60.6309 129.774 60.9069 127.83 60.9069ZM149.108 60.9069C146.636 60.9069 144.668 60.1509 143.204 58.6389C141.74 57.1029 140.936 55.0149 140.792 52.3749C140.768 52.0629 140.756 51.6669 140.756 51.1869C140.756 50.6829 140.768 50.2749 140.792 49.9629C140.888 48.2589 141.284 46.7709 141.98 45.4989C142.676 44.2029 143.624 43.2069 144.824 42.5109C146.048 41.8149 147.476 41.4669 149.108 41.4669C150.932 41.4669 152.456 41.8509 153.68 42.6189C154.928 43.3869 155.876 44.4789 156.524 45.8949C157.172 47.3109 157.496 48.9669 157.496 50.8629V51.4749C157.496 51.7389 157.412 51.9429 157.244 52.0869C157.1 52.2309 156.908 52.3029 156.668 52.3029H144.212C144.212 52.3269 144.212 52.3749 144.212 52.4469C144.212 52.5189 144.212 52.5789 144.212 52.6269C144.26 53.6109 144.476 54.5349 144.86 55.3989C145.244 56.2389 145.796 56.9229 146.516 57.4509C147.236 57.9789 148.1 58.2429 149.108 58.2429C149.972 58.2429 150.692 58.1109 151.268 57.8469C151.844 57.5829 152.312 57.2949 152.672 56.9829C153.032 56.6469 153.272 56.3949 153.392 56.2269C153.608 55.9149 153.776 55.7349 153.896 55.6869C154.016 55.6149 154.208 55.5789 154.472 55.5789H156.2C156.44 55.5789 156.632 55.6509 156.776 55.7949C156.944 55.9149 157.016 56.0949 156.992 56.3349C156.968 56.6949 156.776 57.1389 156.416 57.6669C156.056 58.1709 155.54 58.6749 154.868 59.1789C154.196 59.6829 153.38 60.1029 152.42 60.4389C151.46 60.7509 150.356 60.9069 149.108 60.9069ZM144.212 49.8189H154.076V49.7109C154.076 48.6309 153.872 47.6709 153.464 46.8309C153.08 45.9909 152.516 45.3309 151.772 44.8509C151.028 44.3469 150.14 44.0949 149.108 44.0949C148.076 44.0949 147.188 44.3469 146.444 44.8509C145.724 45.3309 145.172 45.9909 144.788 46.8309C144.404 47.6709 144.212 48.6309 144.212 49.7109V49.8189ZM167.684 60.5469C167.324 60.5469 167.036 60.4629 166.82 60.2949C166.628 60.1269 166.472 59.9109 166.352 59.6469L159.692 42.9429C159.644 42.8229 159.62 42.7029 159.62 42.5829C159.62 42.3669 159.692 42.1869 159.836 42.0429C159.98 41.8989 160.16 41.8269 160.376 41.8269H162.104C162.368 41.8269 162.572 41.8989 162.716 42.0429C162.86 42.1869 162.944 42.3189 162.968 42.4389L168.476 56.6229L173.948 42.4389C173.996 42.3189 174.08 42.1869 174.2 42.0429C174.344 41.8989 174.548 41.8269 174.812 41.8269H176.576C176.768 41.8269 176.936 41.8989 177.08 42.0429C177.248 42.1869 177.332 42.3669 177.332 42.5829C177.332 42.7029 177.308 42.8229 177.26 42.9429L170.564 59.6469C170.468 59.9109 170.312 60.1269 170.096 60.2949C169.904 60.4629 169.616 60.5469 169.232 60.5469H167.684ZM185.618 60.9069C184.418 60.9069 183.326 60.6669 182.342 60.1869C181.358 59.7069 180.566 59.0589 179.966 58.2429C179.366 57.4269 179.066 56.5029 179.066 55.4709C179.066 53.8149 179.738 52.4949 181.082 51.5109C182.426 50.5269 184.178 49.8789 186.338 49.5669L191.702 48.8109V47.7669C191.702 46.6149 191.366 45.7149 190.694 45.0669C190.046 44.4189 188.978 44.0949 187.49 44.0949C186.41 44.0949 185.534 44.3109 184.862 44.7429C184.214 45.1749 183.758 45.7269 183.494 46.3989C183.35 46.7589 183.098 46.9389 182.738 46.9389H181.118C180.854 46.9389 180.65 46.8669 180.506 46.7229C180.386 46.5549 180.326 46.3629 180.326 46.1469C180.326 45.7869 180.458 45.3429 180.722 44.8149C181.01 44.2869 181.442 43.7709 182.018 43.2669C182.594 42.7629 183.326 42.3429 184.214 42.0069C185.126 41.6469 186.23 41.4669 187.526 41.4669C188.966 41.4669 190.178 41.6589 191.162 42.0429C192.146 42.4029 192.914 42.8949 193.466 43.5189C194.042 44.1429 194.45 44.8509 194.69 45.6429C194.954 46.4349 195.086 47.2389 195.086 48.0549V59.7189C195.086 59.9589 195.002 60.1629 194.834 60.3309C194.69 60.4749 194.498 60.5469 194.258 60.5469H192.602C192.338 60.5469 192.134 60.4749 191.99 60.3309C191.846 60.1629 191.774 59.9589 191.774 59.7189V58.1709C191.462 58.6029 191.042 59.0349 190.514 59.4669C189.986 59.8749 189.326 60.2229 188.534 60.5109C187.742 60.7749 186.77 60.9069 185.618 60.9069ZM186.374 58.2069C187.358 58.2069 188.258 58.0029 189.074 57.5949C189.89 57.1629 190.526 56.5029 190.982 55.6149C191.462 54.7269 191.702 53.6109 191.702 52.2669V51.2589L187.526 51.8709C185.822 52.1109 184.538 52.5189 183.674 53.0949C182.81 53.6469 182.378 54.3549 182.378 55.2189C182.378 55.8909 182.57 56.4549 182.954 56.9109C183.362 57.3429 183.866 57.6669 184.466 57.8829C185.09 58.0989 185.726 58.2069 186.374 58.2069Z" fill="white"/>
</svg>
